<?xml version="1.0" encoding="UTF-8" standalone="no"?>
<!-- Created with Inkscape (http://www.inkscape.org/) -->

<svg
   width="1985.3514mm"
   height="360.93588mm"
   viewBox="0 0 1985.3514 360.93588"
   version="1.1"
   id="svg1"
   xml:space="preserve"
   sodipodi:docname="asdsadasdasd333333333333.svg"
   inkscape:version="1.4 (86a8ad7, 2024-10-11)"
   xmlns:inkscape="http://www.inkscape.org/namespaces/inkscape"
   xmlns:sodipodi="http://sodipodi.sourceforge.net/DTD/sodipodi-0.dtd"
   xmlns="http://www.w3.org/2000/svg"
   xmlns:svg="http://www.w3.org/2000/svg"><sodipodi:namedview
     id="namedview1"
     pagecolor="#ffffff"
     bordercolor="#000000"
     borderopacity="0.25"
     inkscape:showpageshadow="2"
     inkscape:pageopacity="0.0"
     inkscape:pagecheckerboard="0"
     inkscape:deskcolor="#d1d1d1"
     inkscape:document-units="px"
     inkscape:zoom="0.20586553"
     inkscape:cx="3951.6085"
     inkscape:cy="-925.36131"
     inkscape:window-width="2560"
     inkscape:window-height="1369"
     inkscape:window-x="2552"
     inkscape:window-y="-8"
     inkscape:window-maximized="1"
     inkscape:current-layer="g11" /><defs
     id="defs1" /><g
     inkscape:label="Warstwa 1"
     inkscape:groupmode="layer"
     id="layer1"
     transform="translate(8.1460573,-709.83885)" /><g
     id="g1"
     transform="matrix(0.77140124,0,0,0.91385757,109.4943,-280.66138)"><g
       id="g11"
       transform="translate(-126.73617,-754.38758)"><path
         style="fill:none;stroke:#ff3399;stroke-width:1.05833;stroke-miterlimit:4;stroke-dasharray:none;stroke-opacity:1"
         d="m 2451.7836,1455.8941 90.7437,-8.548"
         id="path37" /><path
         style="fill:none;stroke:#ff3399;stroke-width:1.05833;stroke-miterlimit:4;stroke-dasharray:none;stroke-opacity:1"
         d="m -14.292601,1364.485 153.520251,-51.4755 207.40035,-69.5416 277.85477,-42.47 201.5527,-74.8625 181.39733,26.6338 146.1257,-46.0692 73.4228,-44.6295 154.7637,37.4312 114.4531,85.6599 158.3629,-40.3106 87.8193,83.5004 163.4017,17.9958 114.4531,9.3578 181.3209,-67.7852 103.8355,85.5116 101.2379,79.3977 151.7338,37.1627"
         id="path1"
         sodipodi:nodetypes="cccccccccccccccccc" /><path
         style="fill:none;stroke:#ff3399;stroke-width:1.05833;stroke-miterlimit:4;stroke-dasharray:none;stroke-opacity:1"
         d="m -15.15491,1375.8375 259.16073,-25.0948 12.28857,-1.1748 60.76361,-19.4576 163.38817,-51.4088 147.2275,-78.8946 197.78668,-19.2931 101.85609,17.6359 79.56026,-45.425 43.5193,41.6105 156.2148,-67.8087 31.6726,-28.7933 141.0869,1.2597 37.4312,91.4186 79.7213,-5.2188 121.4715,79.1814 36.1715,-119.4919 30.9527,179.7778 56.3268,-96.8173 36.1715,118.5922 241.6833,-90.8787 290.8118,21.4149 43.0099,100.7764 203.5322,19.0755"
         id="path2"
         sodipodi:nodetypes="cccccccccccccccccccccccc" /><path
         style="fill:none;stroke:#ff3399;stroke-width:1.05833;stroke-miterlimit:4;stroke-dasharray:none;stroke-opacity:1"
         d="m 2556.5154,1432.9798 c -0.2545,0.2545 -14.3402,14.5417 -14.3402,14.5417"
         id="path4"
         sodipodi:nodetypes="cc" /><path
         style="fill:none;stroke:#ff3399;stroke-width:1.07986;stroke-miterlimit:4;stroke-dasharray:none;stroke-opacity:1"
         d="m 2555.9786,1414.0714 -103.965,41.4064"
         id="path5" /><path
         style="fill:none;stroke:#ff3399;stroke-width:1.05833;stroke-miterlimit:4;stroke-dasharray:none;stroke-opacity:1"
         d="m 2451.8286,1455.5792 -98.7068,-77.7417"
         id="path6" /><path
         style="fill:none;stroke:#ff3399;stroke-width:1.05833;stroke-miterlimit:4;stroke-dasharray:none;stroke-opacity:1"
         d="m 2451.7386,1455.9391 -148.3752,-20.3352 -89.349,-14.4866"
         id="path7" /><path
         style="fill:none;stroke:#ff3399;stroke-width:1.05833;stroke-miterlimit:4;stroke-dasharray:none;stroke-opacity:1"
         d="m 2353.2118,1378.0174 -138.8375,43.0999 -189.63,-53.3412 -107.9074,41.6105 -139.9399,-62.5918 106.1751,88.3592 -92.639,7.2994"
         id="path8"
         sodipodi:nodetypes="ccccccc" /><path
         style="fill:none;stroke:#ff3399;stroke-width:1.05833;stroke-miterlimit:4;stroke-dasharray:none;stroke-opacity:1"
         d="m 2153.5848,1436.1513 60.6995,-15.124"
         id="path9"
         sodipodi:nodetypes="cc" /><path
         style="fill:none;stroke:#ff3399;stroke-width:1.05833;stroke-miterlimit:4;stroke-dasharray:none;stroke-opacity:1"
         d="m 1999.8197,1434.7041 -83.4554,-25.4218"
         id="path10"
         sodipodi:nodetypes="cc" /><path
         style="fill:none;stroke:#ff3399;stroke-width:1.05833;stroke-miterlimit:4;stroke-dasharray:none;stroke-opacity:1"
         d="m 1999.3267,1434.9009 25.696,-67.3347"
         id="path10-8"
         sodipodi:nodetypes="cc" /><path
         style="fill:none;stroke:#ff3399;stroke-width:1.05833;stroke-miterlimit:4;stroke-dasharray:none;stroke-opacity:1"
         d="m 2024.8788,1367.8498 328.2961,10.2335 -236.5565,-71.8959 190.4922,-31.0489"
         id="path12" /><path
         style="fill:none;stroke:#ff3399;stroke-width:1.05833;stroke-miterlimit:4;stroke-dasharray:none;stroke-opacity:1"
         d="m 1777.9318,1346.6148 175.0439,-15.9955 72.5321,37.1568"
         id="path13" /><path
         style="fill:none;stroke:#ff3399;stroke-width:1.05833;stroke-miterlimit:4;stroke-dasharray:none;stroke-opacity:1"
         d="m 1952.9757,1330.8738 163.8615,-24.5695"
         id="path14" /><path
         style="fill:none;stroke:#ff3399;stroke-width:1.05833;stroke-miterlimit:4;stroke-dasharray:none;stroke-opacity:1"
         d="m 1883.1621,1435.064 425.898,1.2824"
         id="path15"
         sodipodi:nodetypes="cc" /><path
         style="fill:none;stroke:#ff3399;stroke-width:1.05833;stroke-miterlimit:4;stroke-dasharray:none;stroke-opacity:1"
         d="m 1793.993,1442.0814 -43.8725,5.0843 26.7421,-101.4048"
         id="path17"
         sodipodi:nodetypes="ccc" /><path
         style="fill:none;stroke:#ff3399;stroke-width:1.05833;stroke-miterlimit:4;stroke-dasharray:none;stroke-opacity:1"
         d="m 1776.2263,1346.5254 -224.8496,45.9371"
         id="path18"
         sodipodi:nodetypes="cc" /><path
         style="fill:none;stroke:#ff3399;stroke-width:1.05833;stroke-miterlimit:4;stroke-dasharray:none;stroke-opacity:1"
         d="M 2025.4085,1367.6966 1777.955,1346.0989"
         id="path18-2"
         sodipodi:nodetypes="cc"
         inkscape:transform-center-x="-18.314442"
         inkscape:transform-center-y="18.314442" /><path
         style="fill:none;stroke:#ff3399;stroke-width:1.05833;stroke-miterlimit:4;stroke-dasharray:none;stroke-opacity:1"
         d="m 1552.0398,1392.4141 132.8088,-66.9443"
         id="path19" /><path
         style="fill:none;stroke:#ff3399;stroke-width:1.05833;stroke-miterlimit:4;stroke-dasharray:none;stroke-opacity:1"
         d="m 1684.734,1325.5293 92.2558,20.4871"
         id="path20" /><path
         style="fill:none;stroke:#ff3399;stroke-width:1.05833;stroke-miterlimit:4;stroke-dasharray:none;stroke-opacity:1"
         d="m 1552.013,1392.3352 20.7416,-60.9524 45.3008,-67.3149"
         id="path21" /><path
         style="fill:none;stroke:#ff3399;stroke-width:1.05833;stroke-miterlimit:4;stroke-dasharray:none;stroke-opacity:1"
         d="m 1617.8009,1264.3223 67.0604,60.8252"
         id="path22" /><path
         style="fill:none;stroke:#ff3399;stroke-width:1.05833;stroke-miterlimit:4;stroke-dasharray:none;stroke-opacity:1"
         d="m 1410.7729,1331.4084 161.9817,-0.1529 112.2339,-5.2172"
         id="path23" /><path
         style="fill:none;stroke:#ff3399;stroke-width:1.05833;stroke-miterlimit:4;stroke-dasharray:none;stroke-opacity:1"
         d="m 1411.0843,1331.3191 140.5956,61.005 198.0786,54.9192"
         id="path24"
         sodipodi:nodetypes="ccc" /><path
         style="fill:none;stroke:#ff3399;stroke-width:1.05833;stroke-miterlimit:4;stroke-dasharray:none;stroke-opacity:1"
         d="m 1749.464,1447.2523 -130.7834,-8.9877 -60.7144,-2.4791 -0.5039,0.01 -5.5797,-43.2094"
         id="path25"
         sodipodi:nodetypes="ccccc" /><path
         style="fill:none;stroke:#ff3399;stroke-width:1.05833;stroke-miterlimit:4;stroke-dasharray:none;stroke-opacity:1"
         d="m 1551.7249,1392.639 -139.559,51.2321 145.0007,-8.0803"
         id="path26" /><path
         style="fill:none;stroke:#ff3399;stroke-width:1.05833;stroke-miterlimit:4;stroke-dasharray:none;stroke-opacity:1"
         d="m 1551.625,1392.0807 -242.3336,44.1219 102.9447,7.6685"
         id="path27"
         sodipodi:nodetypes="ccc" /><path
         style="fill:none;stroke:#ff3399;stroke-width:1.05833;stroke-miterlimit:4;stroke-dasharray:none;stroke-opacity:1"
         d="m 1310.1437,1436.2362 -64.662,-59.2085 306.5313,15.4984"
         id="path28"
         sodipodi:nodetypes="ccc" /><path
         style="fill:none;stroke:#ff3399;stroke-width:1.05833;stroke-miterlimit:4;stroke-dasharray:none;stroke-opacity:1"
         d="m 1244.9419,1376.8027 166.191,-45.3943"
         id="path29" /><path
         style="fill:none;stroke:#ff3399;stroke-width:1.05833;stroke-miterlimit:4;stroke-dasharray:none;stroke-opacity:1"
         d="m 1411.2116,1331.2555 206.7377,-66.7464 -234.7999,-54.1223 113.0585,-25.0591"
         id="path30" /><path
         style="fill:none;stroke:#ff3399;stroke-width:1.05833;stroke-miterlimit:4;stroke-dasharray:none;stroke-opacity:1"
         d="m 1416.8015,1190.3665 -33.6971,19.9303"
         id="path31" /><path
         style="fill:none;stroke:#ff3399;stroke-width:1.05833;stroke-miterlimit:4;stroke-dasharray:none;stroke-opacity:1"
         d="m 1416.7565,1190.4115 -176.3136,8.0981 143.0283,11.8272"
         id="path32" /><path
         style="fill:none;stroke:#ff3399;stroke-width:1.05833;stroke-miterlimit:4;stroke-dasharray:none;stroke-opacity:1"
         d="m 1383.1944,1210.6117 27.9385,120.3018"
         id="path33" /><path
         style="fill:none;stroke:#ff3399;stroke-width:1.05833;stroke-miterlimit:4;stroke-dasharray:none;stroke-opacity:1"
         d="m 1410.5867,1330.8467 -233.4001,-42.3602 67.4403,88.0913 -198.4301,41.08 -246.65038,-41.35 -214.50964,59.791 -22.76927,-82.8292 -153.71723,78.3856 H 237.6544 l 97.98201,-56.4987 226.6311,-21.5051 -245.08227,-23.5411"
         id="path34"
         sodipodi:nodetypes="cccccccccccc" /><path
         style="fill:none;fill-opacity:1;stroke:#ff3399;stroke-width:1.05833;stroke-dasharray:none;stroke-opacity:1"
         d="m 1245.067,1376.7553 16.8224,55.6376 -216.0341,-14.6882"
         id="path42"
         sodipodi:nodetypes="ccc" /><path
         style="fill:none;fill-opacity:1;stroke:#ff3399;stroke-width:1.05833;stroke-dasharray:none;stroke-opacity:1"
         d="m 1261.6973,1432.3803 48.1753,3.8328"
         id="path43"
         sodipodi:nodetypes="cc" /><path
         style="fill:none;fill-opacity:1;stroke:#ff3399;stroke-width:1.05833;stroke-dasharray:none;stroke-opacity:1"
         d="m 1046.0959,1417.7232 -172.83627,-0.5183 -73.60891,-41.0879"
         id="path44" /><path
         style="fill:none;fill-opacity:1;stroke:#ff3399;stroke-width:1.05833;stroke-dasharray:none;stroke-opacity:1"
         d="m 584.97792,1436.2328 288.33629,-19.0825"
         id="path45"
         sodipodi:nodetypes="cc" /><path
         style="fill:none;fill-opacity:1;stroke:#ff3399;stroke-width:1.05833;stroke-dasharray:none;stroke-opacity:1"
         d="m 585.03516,1436.2316 -176.59749,-4.5687"
         id="path46"
         sodipodi:nodetypes="cc" /><path
         style="fill:none;fill-opacity:1;stroke:#ff3399;stroke-width:1.05833;stroke-dasharray:none;stroke-opacity:1"
         d="m 237.82612,1431.6722 -7.14177,0.4635 -1.31504,0.071 -205.243504,11.0715 -0.377373,-0.268 -5.364421,-3.7691 -3.587469,-2.5224 -26.336869,-18.6347"
         id="path47"
         sodipodi:nodetypes="cccccccc" /><path
         style="fill:none;fill-opacity:1;stroke:#ff3399;stroke-width:1.05833;stroke-dasharray:none;stroke-opacity:1"
         d="M 92.972326,1390.304 -14.272602,1379.9366"
         id="path48"
         sodipodi:nodetypes="cc" /><path
         style="fill:none;fill-opacity:1;stroke:#ff3399;stroke-width:1.05833;stroke-dasharray:none;stroke-opacity:1"
         d="M 92.426671,1390.2495 256.55341,1349.4573"
         id="path49"
         sodipodi:nodetypes="cc" /><path
         style="fill:none;fill-opacity:1;stroke:#ff3399;stroke-width:1.05833;stroke-dasharray:none;stroke-opacity:1"
         d="m 335.62532,1375.1348 59.28913,-37.6577"
         id="path50" /><path
         style="fill:none;fill-opacity:1;stroke:#ff3399;stroke-width:1.05833;stroke-dasharray:none;stroke-opacity:1"
         d="M 318.76456,1329.7363 139.11643,1312.9916"
         id="path51"
         sodipodi:nodetypes="cc" /><path
         style="fill:none;fill-opacity:1;stroke:#ff3399;stroke-width:1.05833;stroke-dasharray:none;stroke-opacity:1"
         d="m 346.83921,1243.7188 -28.55192,86.2345"
         id="path52"
         sodipodi:nodetypes="cc" /><path
         style="fill:none;fill-opacity:1;stroke:#ff3399;stroke-width:1.05833;stroke-dasharray:none;stroke-opacity:1"
         d="m 480.41585,1279.1386 81.64306,74.6979"
         id="path53" /><path
         style="fill:none;fill-opacity:1;stroke:#ff3399;stroke-width:1.05833;stroke-dasharray:none;stroke-opacity:1"
         d="m 531.50065,1252.4387 30.71259,100.7805 127.01744,-111.4296"
         id="path54" /><path
         style="fill:none;fill-opacity:1;stroke:#ff3399;stroke-width:1.05833;stroke-dasharray:none;stroke-opacity:1"
         d="m 535.1275,1264.6311 153.70059,-22.5134 -4.53613,-47.9404"
         id="path55" /><path
         style="fill:none;fill-opacity:1;stroke:#ff3399;stroke-width:1.05833;stroke-dasharray:none;stroke-opacity:1"
         d="m 676.26654,1328.3713 12.45241,-86.1854"
         id="path56" /><path
         style="fill:none;fill-opacity:1;stroke:#ff3399;stroke-width:1.05833;stroke-dasharray:none;stroke-opacity:1"
         d="m 688.76766,1242.1754 92.29214,82.6462"
         id="path57" /><path
         style="fill:none;fill-opacity:1;stroke:#ff3399;stroke-width:1.05833;stroke-dasharray:none;stroke-opacity:1"
         d="m 780.49819,1324.498 146.6722,-126.3738"
         id="path58" /><path
         style="fill:none;fill-opacity:1;stroke:#ff3399;stroke-width:1.05833;stroke-dasharray:none;stroke-opacity:1"
         d="m 688.82809,1242.2677 238.06948,-44.0344"
         id="path59" /><path
         style="fill:none;fill-opacity:1;stroke:#ff3399;stroke-width:1.05833;stroke-dasharray:none;stroke-opacity:1"
         d="m 684.46283,1194.632 241.67155,3.558"
         id="path60" /><path
         style="fill:none;fill-opacity:1;stroke:#ff3399;stroke-width:1.05833;stroke-dasharray:none;stroke-opacity:1"
         d="m 826.04836,1126.463 -0.20619,53.982"
         id="path61" /><path
         style="fill:none;fill-opacity:1;stroke:#ff3399;stroke-width:1.05833;stroke-dasharray:none;stroke-opacity:1"
         d="m 1007.4687,1153.6645 199.6229,-27.1849 -53.6925,-19.8073"
         id="path62" /><path
         style="fill:none;fill-opacity:1;stroke:#ff3399;stroke-width:1.05833;stroke-dasharray:none;stroke-opacity:1"
         d="m 1206.8733,1127.0798 34.0489,71.4264"
         id="path63" /><path
         style="fill:none;fill-opacity:1;stroke:#ff3399;stroke-width:1.05833;stroke-dasharray:none;stroke-opacity:1"
         d="m 1240.8227,1198.3444 138.5323,-99.3658"
         id="path64" /><path
         style="fill:none;fill-opacity:1;stroke:#ff3399;stroke-width:1.05833;stroke-dasharray:none;stroke-opacity:1"
         d="m 1176.4652,1287.9356 64.7434,-89.6684"
         id="path65" /><path
         style="fill:none;fill-opacity:1;stroke:#ff3399;stroke-width:1.05833;stroke-dasharray:none;stroke-opacity:1"
         d="m 1049.9879,1194.023 190.912,4.167"
         id="path66" /><path
         style="fill:none;fill-opacity:1;stroke:#ff3399;stroke-width:1.05833;stroke-dasharray:none;stroke-opacity:1"
         d="m 1050.3545,1194.351 100.0281,130.9336 26.2069,-37.5911"
         id="path67" /><path
         style="fill:none;fill-opacity:1;stroke:#ff3399;stroke-width:1.05833;stroke-dasharray:none;stroke-opacity:1"
         d="m 1150.398,1325.5074 94.071,50.9916"
         id="path68" /><path
         style="fill:none;fill-opacity:1;stroke:#ff3399;stroke-width:1.05833;stroke-dasharray:none;stroke-opacity:1"
         d="m 1150.4526,1325.371 -104.4385,92.2704"
         id="path69" /><path
         style="fill:none;fill-opacity:1;stroke:#ff3399;stroke-width:1.05833;stroke-dasharray:none;stroke-opacity:1"
         d="m 799.75983,1376.2807 350.54567,-51.0732"
         id="path70" /><path
         style="fill:none;fill-opacity:1;stroke:#ff3399;stroke-width:1.05833;stroke-dasharray:none;stroke-opacity:1"
         d="m 995.19914,1231.835 155.02916,93.5268"
         id="path71" /><path
         style="fill:none;fill-opacity:1;stroke:#ff3399;stroke-width:1.05833;stroke-dasharray:none;stroke-opacity:1"
         d="m 995.65014,1232.1185 54.83836,-37.7593"
         id="path72" /><path
         style="fill:none;fill-opacity:1;stroke:#ff3399;stroke-width:1.05833;stroke-dasharray:none;stroke-opacity:1"
         d="m 926.75174,1198.3444 69.5278,33.9536"
         id="path73" /><path
         style="fill:none;fill-opacity:1;stroke:#ff3399;stroke-width:1.05833;stroke-dasharray:none;stroke-opacity:1"
         d="m 926.89757,1198.2333 80.86613,-14.0233 42.7793,10.3674"
         id="path74" /><path
         style="fill:none;fill-opacity:1;stroke:#ff3399;stroke-width:1.05833;stroke-dasharray:none;stroke-opacity:1"
         d="m 1007.1634,1152.9439 0.7094,31.2661"
         id="path75" /><path
         style="fill:none;fill-opacity:1;stroke:#ff3399;stroke-width:1.05833;stroke-dasharray:none;stroke-opacity:1"
         d="m 995.73934,1231.9507 11.96976,-48.2864"
         id="path76" /><path
         style="fill:none;fill-opacity:1;stroke:#ff3399;stroke-width:1.05833;stroke-dasharray:none;stroke-opacity:1"
         d="m 780.49819,1324.6071 215.20655,-92.6523 -195.89032,144.3805"
         id="path77" /><path
         style="fill:none;fill-opacity:1;stroke:#ff3399;stroke-width:1.05833;stroke-dasharray:none;stroke-opacity:1"
         d="m 780.71647,1324.3889 20.08011,51.5098"
         id="path78" /><path
         style="fill:none;fill-opacity:1;stroke:#ff3399;stroke-width:1.05833;stroke-dasharray:none;stroke-opacity:1"
         d="m 676.34372,1327.6768 123.98907,48.1401"
         id="path79" /><path
         style="fill:none;fill-opacity:1;stroke:#ff3399;stroke-width:1.05833;stroke-dasharray:none;stroke-opacity:1"
         d="m 93.081456,1390.304 -69.264719,53.0466"
         id="path80" /><path
         style="fill:none;fill-opacity:1;stroke:#ff3399;stroke-width:1.05833;stroke-dasharray:none;stroke-opacity:1"
         d="m 92.972326,1390.2495 143.219774,41.1909 0.98129,0.3296"
         id="path81"
         sodipodi:nodetypes="ccc" /><path
         style="fill:none;fill-opacity:1;stroke:#ff3399;stroke-width:1.05833;stroke-dasharray:none;stroke-opacity:1"
         d="m 237.49309,1431.7369 80.63986,-101.8994"
         id="path82"
         sodipodi:nodetypes="cc" /><path
         style="fill:none;fill-opacity:1;stroke:#ff3399;stroke-width:1.05833;stroke-dasharray:none;stroke-opacity:1"
         d="m 561.8981,1353.2487 238.49128,22.6845"
         id="path84" /><path
         style="fill:none;fill-opacity:1;stroke:#ff3399;stroke-width:1.05833;stroke-dasharray:none;stroke-opacity:1"
         d="m 562.05751,1353.2308 114.2687,-25.2157"
         id="path85" /><path
         style="fill:none;fill-opacity:1;stroke:#ff3399;stroke-width:1.05833;stroke-dasharray:none;stroke-opacity:1"
         d="m 1226.8112,1062.3259 11.7866,35.5468"
         id="path86" /><path
         style="fill:none;stroke:#ff3399;stroke-width:1.05833"
         d="m 2117.4105,1306.3996 -96.9698,-50.8"
         id="path3" /><path
         style="fill:none;stroke:#ff3399;stroke-width:1.05833"
         d="m 2024.5418,1367.7829 93.1333,-61.3833"
         id="path16" /><path
         style="fill:none;stroke:#ff3399;stroke-width:1.06059;stroke-dasharray:none"
         d="m 585.14237,1436.3099 727.62073,0.1158"
         id="path40" /></g></g></svg>
