<?xml version="1.0" encoding="UTF-8" standalone="no"?>
<!-- Created with Inkscape (http://www.inkscape.org/) -->

<svg
   width="1980mm"
   height="1080mm"
   viewBox="0 0 1980 1080"
   version="1.1"
   id="svg1"
   xml:space="preserve"
   sodipodi:docname="asdsadasdasd333333333333.svg"
   inkscape:version="1.4 (86a8ad7, 2024-10-11)"
   xmlns:inkscape="http://www.inkscape.org/namespaces/inkscape"
   xmlns:sodipodi="http://sodipodi.sourceforge.net/DTD/sodipodi-0.dtd"
   xmlns="http://www.w3.org/2000/svg"
   xmlns:svg="http://www.w3.org/2000/svg"><sodipodi:namedview
     id="namedview1"
     pagecolor="#ffffff"
     bordercolor="#000000"
     borderopacity="0.25"
     inkscape:showpageshadow="2"
     inkscape:pageopacity="0.0"
     inkscape:pagecheckerboard="0"
     inkscape:deskcolor="#d1d1d1"
     inkscape:document-units="px"
     inkscape:zoom="0.29113783"
     inkscape:cx="3860.7143"
     inkscape:cy="2110.6841"
     inkscape:window-width="2560"
     inkscape:window-height="1369"
     inkscape:window-x="2552"
     inkscape:window-y="-8"
     inkscape:window-maximized="1"
     inkscape:current-layer="g11" /><defs
     id="defs1" /><g
     inkscape:label="Warstwa 1"
     inkscape:groupmode="layer"
     id="layer1" /><g
     id="g1"
     transform="matrix(0.77140124,0,0,0.91385757,101.34824,429.17747)"><g
       id="g11"
       transform="translate(-126.73617,-754.38758)"><path
         style="fill:none;stroke:#ff3399;stroke-width:1.05833;stroke-miterlimit:4;stroke-dasharray:none;stroke-opacity:1"
         d="m 2458.448,1029.7633 90.7437,-8.548"
         id="path37" /><path
         style="fill:none;stroke:#ff3399;stroke-width:1.05833;stroke-miterlimit:4;stroke-dasharray:none;stroke-opacity:1"
         d="m -7.6282396,938.35417 153.5202496,-51.47554 207.40035,-69.54162 277.85477,-42.47 201.5527,-74.8625 181.39737,26.6338 146.1257,-46.0692 73.4228,-44.6295 154.7637,37.4312 114.4531,85.6599 158.3629,-40.3106 87.8193,83.5004 163.4017,17.9958 114.4531,9.3578 181.3209,-67.7852 103.8355,85.5116 101.2379,79.39775 151.7338,37.16265"
         id="path1"
         sodipodi:nodetypes="cccccccccccccccccc" /><path
         style="fill:none;stroke:#ff3399;stroke-width:1.05833;stroke-miterlimit:4;stroke-dasharray:none;stroke-opacity:1"
         d="m -8.4905486,949.70663 259.1607286,-25.09474 12.28857,-1.17482 60.76361,-19.45764 163.38817,-51.40876 147.2275,-78.89459 197.78668,-19.29313 101.85609,17.63586 79.5603,-45.42499 43.5193,41.61054 156.2148,-67.80874 31.6726,-28.79325 141.0869,1.25971 37.4312,91.41854 79.7213,-5.21877 121.4715,79.18143 36.1715,-119.49197 30.9527,179.77781 56.3268,-96.81729 36.1715,118.59218 241.6833,-90.87866 290.8118,21.41495 43.0099,100.77635 203.5322,19.07553"
         id="path2"
         sodipodi:nodetypes="cccccccccccccccccccccccc" /><path
         style="fill:none;stroke:#ff3399;stroke-width:1.05833;stroke-miterlimit:4;stroke-dasharray:none;stroke-opacity:1"
         d="m 2563.1798,1006.849 c -0.2545,0.2545 -14.3402,14.5417 -14.3402,14.5417"
         id="path4"
         sodipodi:nodetypes="cc" /><path
         style="fill:none;stroke:#ff3399;stroke-width:1.07986;stroke-miterlimit:4;stroke-dasharray:none;stroke-opacity:1"
         d="M 2562.643,987.94053 2458.678,1029.347"
         id="path5" /><path
         style="fill:none;stroke:#ff3399;stroke-width:1.05833;stroke-miterlimit:4;stroke-dasharray:none;stroke-opacity:1"
         d="m 2458.493,1029.4484 -98.7068,-77.74177"
         id="path6" /><path
         style="fill:none;stroke:#ff3399;stroke-width:1.05833;stroke-miterlimit:4;stroke-dasharray:none;stroke-opacity:1"
         d="m 2458.403,1029.8083 -148.3752,-20.3352 -89.349,-14.48661"
         id="path7" /><path
         style="fill:none;stroke:#ff3399;stroke-width:1.05833;stroke-miterlimit:4;stroke-dasharray:none;stroke-opacity:1"
         d="m 2359.8762,951.8866 -138.8375,43.09989 -189.63,-53.34124 -107.9074,41.61051 -139.9399,-62.59184 106.1751,88.35928 -92.639,7.2994"
         id="path8"
         sodipodi:nodetypes="ccccccc" /><path
         style="fill:none;stroke:#ff3399;stroke-width:1.05833;stroke-miterlimit:4;stroke-dasharray:none;stroke-opacity:1"
         d="m 2160.2492,1010.0205 60.6995,-15.124"
         id="path9"
         sodipodi:nodetypes="cc" /><path
         style="fill:none;stroke:#ff3399;stroke-width:1.05833;stroke-miterlimit:4;stroke-dasharray:none;stroke-opacity:1"
         d="m 2006.4841,1008.5733 -83.4554,-25.42188"
         id="path10"
         sodipodi:nodetypes="cc" /><path
         style="fill:none;stroke:#ff3399;stroke-width:1.05833;stroke-miterlimit:4;stroke-dasharray:none;stroke-opacity:1"
         d="m 2005.9911,1008.7701 25.696,-67.33477"
         id="path10-8"
         sodipodi:nodetypes="cc" /><path
         style="fill:none;stroke:#ff3399;stroke-width:1.05833;stroke-miterlimit:4;stroke-dasharray:none;stroke-opacity:1"
         d="m 2031.5432,941.71898 328.2961,10.23345 -236.5565,-71.89589 190.4922,-31.04885"
         id="path12" /><path
         style="fill:none;stroke:#ff3399;stroke-width:1.05833;stroke-miterlimit:4;stroke-dasharray:none;stroke-opacity:1"
         d="m 1784.5962,920.48398 175.0439,-15.99555 72.5321,37.15682"
         id="path13" /><path
         style="fill:none;stroke:#ff3399;stroke-width:1.05833;stroke-miterlimit:4;stroke-dasharray:none;stroke-opacity:1"
         d="m 1959.6401,904.74291 163.8615,-24.56947"
         id="path14" /><path
         style="fill:none;stroke:#ff3399;stroke-width:1.05833;stroke-miterlimit:4;stroke-dasharray:none;stroke-opacity:1"
         d="m 1889.8265,1008.9332 425.898,1.2824"
         id="path15"
         sodipodi:nodetypes="cc" /><path
         style="fill:none;stroke:#ff3399;stroke-width:1.05833;stroke-miterlimit:4;stroke-dasharray:none;stroke-opacity:1"
         d="m 1800.6574,1015.9506 -43.8725,5.0843 26.7421,-101.40484"
         id="path17"
         sodipodi:nodetypes="ccc" /><path
         style="fill:none;stroke:#ff3399;stroke-width:1.05833;stroke-miterlimit:4;stroke-dasharray:none;stroke-opacity:1"
         d="m 1782.8907,920.3946 -224.8496,45.93701"
         id="path18"
         sodipodi:nodetypes="cc" /><path
         style="fill:none;stroke:#ff3399;stroke-width:1.05833;stroke-miterlimit:4;stroke-dasharray:none;stroke-opacity:1"
         d="M 2032.0729,941.5658 1784.6194,919.9681"
         id="path18-2"
         sodipodi:nodetypes="cc"
         inkscape:transform-center-x="-18.314442"
         inkscape:transform-center-y="18.314442" /><path
         style="fill:none;stroke:#ff3399;stroke-width:1.05833;stroke-miterlimit:4;stroke-dasharray:none;stroke-opacity:1"
         d="M 1558.7042,966.28322 1691.513,899.33893"
         id="path19" /><path
         style="fill:none;stroke:#ff3399;stroke-width:1.05833;stroke-miterlimit:4;stroke-dasharray:none;stroke-opacity:1"
         d="m 1691.3984,899.39846 92.2558,20.48713"
         id="path20" /><path
         style="fill:none;stroke:#ff3399;stroke-width:1.05833;stroke-miterlimit:4;stroke-dasharray:none;stroke-opacity:1"
         d="m 1558.6774,966.20435 20.7416,-60.95244 45.3008,-67.31489"
         id="path21" /><path
         style="fill:none;stroke:#ff3399;stroke-width:1.05833;stroke-miterlimit:4;stroke-dasharray:none;stroke-opacity:1"
         d="m 1624.4653,838.1915 67.0604,60.82519"
         id="path22" /><path
         style="fill:none;stroke:#ff3399;stroke-width:1.05833;stroke-miterlimit:4;stroke-dasharray:none;stroke-opacity:1"
         d="m 1417.4373,905.27753 161.9817,-0.15285 112.2339,-5.21724"
         id="path23" /><path
         style="fill:none;stroke:#ff3399;stroke-width:1.05833;stroke-miterlimit:4;stroke-dasharray:none;stroke-opacity:1"
         d="m 1417.7487,905.18828 140.5956,61.00495 198.0786,54.91927"
         id="path24"
         sodipodi:nodetypes="ccc" /><path
         style="fill:none;stroke:#ff3399;stroke-width:1.05833;stroke-miterlimit:4;stroke-dasharray:none;stroke-opacity:1"
         d="m 1756.1284,1021.1215 -130.7834,-8.9877 -60.7144,-2.4791 -0.5039,0.01 -5.5797,-43.20942"
         id="path25"
         sodipodi:nodetypes="ccccc" /><path
         style="fill:none;stroke:#ff3399;stroke-width:1.05833;stroke-miterlimit:4;stroke-dasharray:none;stroke-opacity:1"
         d="m 1558.3893,966.50817 -139.559,51.23213 145.0007,-8.0803"
         id="path26" /><path
         style="fill:none;stroke:#ff3399;stroke-width:1.05833;stroke-miterlimit:4;stroke-dasharray:none;stroke-opacity:1"
         d="m 1558.2894,965.94987 -242.3336,44.12193 102.9447,7.6685"
         id="path27"
         sodipodi:nodetypes="ccc" /><path
         style="fill:none;stroke:#ff3399;stroke-width:1.05833;stroke-miterlimit:4;stroke-dasharray:none;stroke-opacity:1"
         d="m 1316.8081,1010.1054 -64.662,-59.20858 306.5313,15.49842"
         id="path28"
         sodipodi:nodetypes="ccc" /><path
         style="fill:none;stroke:#ff3399;stroke-width:1.05833;stroke-miterlimit:4;stroke-dasharray:none;stroke-opacity:1"
         d="m 1251.6063,950.67188 166.191,-45.39435"
         id="path29" /><path
         style="fill:none;stroke:#ff3399;stroke-width:1.05833;stroke-miterlimit:4;stroke-dasharray:none;stroke-opacity:1"
         d="m 1417.876,905.12468 206.7377,-66.74644 -234.7999,-54.12229 113.0585,-25.05914"
         id="path30" /><path
         style="fill:none;stroke:#ff3399;stroke-width:1.05833;stroke-miterlimit:4;stroke-dasharray:none;stroke-opacity:1"
         d="m 1423.4659,764.23564 -33.6971,19.93032"
         id="path31" /><path
         style="fill:none;stroke:#ff3399;stroke-width:1.05833;stroke-miterlimit:4;stroke-dasharray:none;stroke-opacity:1"
         d="m 1423.4209,764.28062 -176.3136,8.0981 143.0283,11.82725"
         id="path32" /><path
         style="fill:none;stroke:#ff3399;stroke-width:1.05833;stroke-miterlimit:4;stroke-dasharray:none;stroke-opacity:1"
         d="m 1389.8588,784.4809 27.9385,120.30175"
         id="path33" /><path
         style="fill:none;stroke:#ff3399;stroke-width:1.05833;stroke-miterlimit:4;stroke-dasharray:none;stroke-opacity:1"
         d="m 1417.2511,904.71584 -233.4001,-42.36018 67.4403,88.09127 -198.4301,41.08005 -246.65042,-41.34998 -214.50964,59.791 -22.76927,-82.8292 -153.71723,78.3856 H 244.31876 l 97.98201,-56.49871 226.6311,-21.50515 -245.08227,-23.54111"
         id="path34"
         sodipodi:nodetypes="cccccccccccc" /><path
         style="fill:none;fill-opacity:1;stroke:#ff3399;stroke-width:1.05833;stroke-dasharray:none;stroke-opacity:1"
         d="m 1251.7314,950.62441 16.8224,55.63769 -216.0341,-14.68822"
         id="path42"
         sodipodi:nodetypes="ccc" /><path
         style="fill:none;fill-opacity:1;stroke:#ff3399;stroke-width:1.05833;stroke-dasharray:none;stroke-opacity:1"
         d="m 1268.3617,1006.2495 48.1753,3.8328"
         id="path43"
         sodipodi:nodetypes="cc" /><path
         style="fill:none;fill-opacity:1;stroke:#ff3399;stroke-width:1.05833;stroke-dasharray:none;stroke-opacity:1"
         d="M 1052.7603,991.59239 879.92399,991.07402 806.31508,949.98616"
         id="path44" /><path
         style="fill:none;fill-opacity:1;stroke:#ff3399;stroke-width:1.05833;stroke-dasharray:none;stroke-opacity:1"
         d="M 591.64228,1010.102 879.97857,991.01943"
         id="path45"
         sodipodi:nodetypes="cc" /><path
         style="fill:none;fill-opacity:1;stroke:#ff3399;stroke-width:1.05833;stroke-dasharray:none;stroke-opacity:1"
         d="m 591.69952,1010.1008 -176.59749,-4.5687"
         id="path46"
         sodipodi:nodetypes="cc" /><path
         style="fill:none;fill-opacity:1;stroke:#ff3399;stroke-width:1.05833;stroke-dasharray:none;stroke-opacity:1"
         d="m 244.49048,1005.5414 -7.14177,0.4635 -1.31504,0.071 -205.243503,11.0715 -0.377373,-0.268 -5.364421,-3.7691 -3.587469,-2.5224 -26.3368686,-18.63472"
         id="path47"
         sodipodi:nodetypes="cccccccc" /><path
         style="fill:none;fill-opacity:1;stroke:#ff3399;stroke-width:1.05833;stroke-dasharray:none;stroke-opacity:1"
         d="M 99.636687,964.17319 -7.6082407,953.80575"
         id="path48"
         sodipodi:nodetypes="cc" /><path
         style="fill:none;fill-opacity:1;stroke:#ff3399;stroke-width:1.05833;stroke-dasharray:none;stroke-opacity:1"
         d="M 99.091032,964.11864 263.21777,923.32646"
         id="path49"
         sodipodi:nodetypes="cc" /><path
         style="fill:none;fill-opacity:1;stroke:#ff3399;stroke-width:1.05833;stroke-dasharray:none;stroke-opacity:1"
         d="m 342.28968,949.00397 59.28913,-37.65775"
         id="path50" /><path
         style="fill:none;fill-opacity:1;stroke:#ff3399;stroke-width:1.05833;stroke-dasharray:none;stroke-opacity:1"
         d="M 325.42892,903.60544 145.78079,886.86075"
         id="path51"
         sodipodi:nodetypes="cc" /><path
         style="fill:none;fill-opacity:1;stroke:#ff3399;stroke-width:1.05833;stroke-dasharray:none;stroke-opacity:1"
         d="m 353.50357,817.58792 -28.55192,86.2345"
         id="path52"
         sodipodi:nodetypes="cc" /><path
         style="fill:none;fill-opacity:1;stroke:#ff3399;stroke-width:1.05833;stroke-dasharray:none;stroke-opacity:1"
         d="m 487.08021,853.00771 81.64306,74.69799"
         id="path53" /><path
         style="fill:none;fill-opacity:1;stroke:#ff3399;stroke-width:1.05833;stroke-dasharray:none;stroke-opacity:1"
         d="M 538.16501,826.30782 568.8776,927.08837 695.89504,815.65873"
         id="path54" /><path
         style="fill:none;fill-opacity:1;stroke:#ff3399;stroke-width:1.05833;stroke-dasharray:none;stroke-opacity:1"
         d="m 541.79186,838.50027 153.70059,-22.51345 -4.53613,-47.94033"
         id="path55" /><path
         style="fill:none;fill-opacity:1;stroke:#ff3399;stroke-width:1.05833;stroke-dasharray:none;stroke-opacity:1"
         d="m 682.9309,902.24048 12.45241,-86.18545"
         id="path56" /><path
         style="fill:none;fill-opacity:1;stroke:#ff3399;stroke-width:1.05833;stroke-dasharray:none;stroke-opacity:1"
         d="m 695.43202,816.04458 92.29214,82.6462"
         id="path57" /><path
         style="fill:none;fill-opacity:1;stroke:#ff3399;stroke-width:1.05833;stroke-dasharray:none;stroke-opacity:1"
         d="M 787.16255,898.36714 933.83475,771.99333"
         id="path58" /><path
         style="fill:none;fill-opacity:1;stroke:#ff3399;stroke-width:1.05833;stroke-dasharray:none;stroke-opacity:1"
         d="M 695.49245,816.13686 933.56193,772.10247"
         id="path59" /><path
         style="fill:none;fill-opacity:1;stroke:#ff3399;stroke-width:1.05833;stroke-dasharray:none;stroke-opacity:1"
         d="m 691.12719,768.50115 241.67155,3.55803"
         id="path60" /><path
         style="fill:none;fill-opacity:1;stroke:#ff3399;stroke-width:1.05833;stroke-dasharray:none;stroke-opacity:1"
         d="m 832.71272,700.33215 -0.20619,53.98196"
         id="path61" /><path
         style="fill:none;fill-opacity:1;stroke:#ff3399;stroke-width:1.05833;stroke-dasharray:none;stroke-opacity:1"
         d="m 1014.1331,727.53365 199.6229,-27.18486 -53.6925,-19.80731"
         id="path62" /><path
         style="fill:none;fill-opacity:1;stroke:#ff3399;stroke-width:1.05833;stroke-dasharray:none;stroke-opacity:1"
         d="m 1213.5377,700.949 34.0489,71.42631"
         id="path63" /><path
         style="fill:none;fill-opacity:1;stroke:#ff3399;stroke-width:1.05833;stroke-dasharray:none;stroke-opacity:1"
         d="m 1247.4871,772.21352 138.5323,-99.36578"
         id="path64" /><path
         style="fill:none;fill-opacity:1;stroke:#ff3399;stroke-width:1.05833;stroke-dasharray:none;stroke-opacity:1"
         d="m 1183.1296,861.80479 64.7434,-89.66843"
         id="path65" /><path
         style="fill:none;fill-opacity:1;stroke:#ff3399;stroke-width:1.05833;stroke-dasharray:none;stroke-opacity:1"
         d="m 1056.6523,767.89216 190.912,4.16702"
         id="path66" /><path
         style="fill:none;fill-opacity:1;stroke:#ff3399;stroke-width:1.05833;stroke-dasharray:none;stroke-opacity:1"
         d="m 1057.0189,768.22011 100.0281,130.93369 26.2069,-37.5911"
         id="path67" /><path
         style="fill:none;fill-opacity:1;stroke:#ff3399;stroke-width:1.05833;stroke-dasharray:none;stroke-opacity:1"
         d="m 1157.0624,899.3766 94.071,50.99151"
         id="path68" /><path
         style="fill:none;fill-opacity:1;stroke:#ff3399;stroke-width:1.05833;stroke-dasharray:none;stroke-opacity:1"
         d="m 1157.117,899.24018 -104.4385,92.27034"
         id="path69" /><path
         style="fill:none;fill-opacity:1;stroke:#ff3399;stroke-width:1.05833;stroke-dasharray:none;stroke-opacity:1"
         d="M 806.42419,950.14985 1156.9699,899.07662"
         id="path70" /><path
         style="fill:none;fill-opacity:1;stroke:#ff3399;stroke-width:1.05833;stroke-dasharray:none;stroke-opacity:1"
         d="m 1001.8635,805.70416 155.0292,93.52679"
         id="path71" /><path
         style="fill:none;fill-opacity:1;stroke:#ff3399;stroke-width:1.05833;stroke-dasharray:none;stroke-opacity:1"
         d="m 1002.3145,805.98768 54.8384,-37.75937"
         id="path72" /><path
         style="fill:none;fill-opacity:1;stroke:#ff3399;stroke-width:1.05833;stroke-dasharray:none;stroke-opacity:1"
         d="m 933.4161,772.21352 69.5278,33.95363"
         id="path73" /><path
         style="fill:none;fill-opacity:1;stroke:#ff3399;stroke-width:1.05833;stroke-dasharray:none;stroke-opacity:1"
         d="m 933.56193,772.10247 80.86617,-14.02334 42.7793,10.36746"
         id="path74" /><path
         style="fill:none;fill-opacity:1;stroke:#ff3399;stroke-width:1.05833;stroke-dasharray:none;stroke-opacity:1"
         d="m 1013.8278,726.81308 0.7094,31.26605"
         id="path75" /><path
         style="fill:none;fill-opacity:1;stroke:#ff3399;stroke-width:1.05833;stroke-dasharray:none;stroke-opacity:1"
         d="m 1002.4037,805.81988 11.9698,-48.2864"
         id="path76" /><path
         style="fill:none;fill-opacity:1;stroke:#ff3399;stroke-width:1.05833;stroke-dasharray:none;stroke-opacity:1"
         d="M 787.16255,898.47628 1002.3691,805.82399 806.47878,950.20441"
         id="path77" /><path
         style="fill:none;fill-opacity:1;stroke:#ff3399;stroke-width:1.05833;stroke-dasharray:none;stroke-opacity:1"
         d="m 787.38083,898.25802 20.08011,51.50988"
         id="path78" /><path
         style="fill:none;fill-opacity:1;stroke:#ff3399;stroke-width:1.05833;stroke-dasharray:none;stroke-opacity:1"
         d="m 683.00808,901.54597 123.98907,48.14007"
         id="path79" /><path
         style="fill:none;fill-opacity:1;stroke:#ff3399;stroke-width:1.05833;stroke-dasharray:none;stroke-opacity:1"
         d="M 99.745817,964.17319 30.481098,1017.2198"
         id="path80" /><path
         style="fill:none;fill-opacity:1;stroke:#ff3399;stroke-width:1.05833;stroke-dasharray:none;stroke-opacity:1"
         d="m 99.636687,964.11864 143.219773,41.19096 0.98129,0.3296"
         id="path81"
         sodipodi:nodetypes="ccc" /><path
         style="fill:none;fill-opacity:1;stroke:#ff3399;stroke-width:1.05833;stroke-dasharray:none;stroke-opacity:1"
         d="M 244.15745,1005.6061 324.79731,903.70667"
         id="path82"
         sodipodi:nodetypes="cc" /><path
         style="fill:none;fill-opacity:1;stroke:#ff3399;stroke-width:1.05833;stroke-dasharray:none;stroke-opacity:1"
         d="m 568.56246,927.11787 238.49128,22.68451"
         id="path84" /><path
         style="fill:none;fill-opacity:1;stroke:#ff3399;stroke-width:1.05833;stroke-dasharray:none;stroke-opacity:1"
         d="M 568.72187,927.09999 682.99057,901.8843"
         id="path85" /><path
         style="fill:none;fill-opacity:1;stroke:#ff3399;stroke-width:1.05833;stroke-dasharray:none;stroke-opacity:1"
         d="m 1233.4756,636.19501 11.7866,35.54685"
         id="path86" /><path
         style="fill:none;stroke:#ff3399;stroke-width:1.05833"
         d="m 2124.0749,880.26871 -96.9698,-50.8"
         id="path3" /><path
         style="fill:none;stroke:#ff3399;stroke-width:1.05833"
         d="m 2031.2062,941.65205 93.1333,-61.38334"
         id="path16" /><path
         style="fill:none;stroke:#ff3399;stroke-width:1.06059;stroke-dasharray:none"
         d="m 591.80673,1010.1791 727.62077,0.1158"
         id="path40" /></g></g></svg>
